Coordinates
nRows=261
nColumns=2
inDegrees=yes
endheader
time	ankle_angle_r	
3.39293	 18.829346	
3.42619	 18.844604	
3.45946	 18.753052	
3.49272	 18.783569	
3.52598	 18.798828	
3.55925	 18.737793	
3.59251	 18.844604	
3.62578	 18.859863	
3.65904	 18.768311	
3.6923	 18.844604	
3.72557	 18.875122	
3.75883	 18.783569	
3.7921	 18.905640	
3.82536	 18.859863	
3.85862	 18.798828	
3.89189	 18.859863	
3.92515	 18.936157	
3.95842	 18.814087	
3.99168	 18.859863	
4.02494	 18.890381	
4.05821	 18.814087	
4.09147	 18.844604	
4.12474	 18.890381	
4.158	 18.798828	
4.19126	 18.859863	
4.22453	 18.875122	
4.25779	 18.798828	
4.29106	 18.859863	
4.32432	 18.844604	
4.35758	 18.798828	
4.39085	 18.844604	
4.42411	 18.829346	
4.45738	 18.783569	
4.49064	 18.844604	
4.5239	 18.768311	
4.55717	 18.753052	
4.59043	 18.814087	
4.6237	 18.768311	
4.65696	 18.768311	
4.69022	 18.814087	
4.72349	 18.753052	
4.75675	 18.753052	
4.79002	 18.722534	
4.82328	 18.707275	
4.85654	 18.692017	
4.88981	 18.737793	
4.92307	 18.661499	
4.95634	 18.661499	
4.9896	 18.722534	
5.02286	 18.600464	
5.05613	 18.646240	
5.08939	 18.737793	
5.12266	 18.646240	
5.15592	 18.646240	
5.18918	 18.768311	
5.22245	 18.661499	
5.25571	 18.615723	
5.28898	 18.692017	
5.32224	 18.600464	
5.3555	 18.676758	
5.38877	 18.783569	
5.42203	 18.707275	
5.4553	 18.646240	
5.48856	 18.737793	
5.52182	 18.707275	
5.55509	 18.630981	
5.58835	 18.722534	
5.62162	 18.646240	
5.65488	 18.630981	
5.68814	 18.737793	
5.72141	 18.692017	
5.75467	 18.692017	
5.78794	 18.722534	
5.8212	 18.692017	
5.85446	 18.768311	
5.88773	 18.829346	
5.92099	 18.768311	
5.95426	 18.829346	
5.98752	 18.844604	
6.02078	 18.737793	
6.05405	 18.844604	
6.08731	 18.859863	
6.12058	 18.798828	
6.15384	 18.890381	
6.1871	 18.829346	
6.22037	 18.814087	
6.25363	 18.875122	
6.2869	 18.875122	
6.32016	 18.798828	
6.35342	 18.890381	
6.38669	 18.875122	
6.41995	 18.814087	
6.45322	 18.844604	
6.48648	 18.890381	
6.51974	 18.814087	
6.55301	 18.890381	
6.58627	 18.890381	
6.61954	 18.814087	
6.6528	 18.875122	
6.68606	 18.890381	
6.71933	 18.814087	
6.75259	 18.875122	
6.78586	 18.875122	
6.81912	 18.783569	
6.85238	 18.829346	
6.88565	 18.875122	
6.91891	 18.753052	
6.95218	 18.814087	
6.98544	 18.844604	
7.0187	 18.753052	
7.05197	 18.798828	
7.08523	 18.783569	
7.1185	 18.722534	
7.15176	 18.783569	
7.18502	 18.737793	
7.21829	 18.661499	
7.25155	 18.768311	
7.28482	 18.722534	
7.31808	 18.676758	
7.35134	 18.768311	
7.38461	 18.646240	
7.41787	 18.707275	
7.45114	 18.768311	
7.4844	 18.676758	
7.51766	 18.676758	
7.55093	 18.707275	
7.58419	 18.661499	
7.61746	 18.661499	
7.65072	 18.737793	
7.68398	 18.661499	
7.71725	 18.646240	
7.75051	 18.737793	
7.78378	 18.676758	
7.81704	 18.661499	
7.8503	 18.737793	
7.88357	 18.661499	
7.91683	 18.661499	
7.9501	 18.737793	
7.98336	 18.615723	
8.01662	 18.646240	
8.04989	 18.753052	
8.08315	 18.692017	
8.11642	 18.722534	
8.14968	 18.798828	
8.18294	 18.737793	
8.21621	 18.737793	
8.24947	 18.798828	
8.28274	 18.737793	
8.316	 18.737793	
8.34926	 18.829346	
8.38253	 18.753052	
8.41579	 18.753052	
8.44906	 18.814087	
8.48232	 18.753052	
8.51558	 18.753052	
8.54885	 18.829346	
8.58211	 18.768311	
8.61538	 18.737793	
8.64864	 18.844604	
8.6819	 18.737793	
8.71517	 18.814087	
8.74843	 18.844604	
8.7817	 18.768311	
8.81496	 18.829346	
8.84822	 18.859863	
8.88149	 18.798828	
8.91475	 18.859863	
8.94802	 18.829346	
8.98128	 18.814087	
9.01454	 18.890381	
9.04781	 18.844604	
9.08107	 18.783569	
9.11434	 18.844604	
9.1476	 18.829346	
9.18086	 18.737793	
9.21413	 18.844604	
9.24739	 18.783569	
9.28066	 18.707275	
9.31392	 18.798828	
9.34718	 18.798828	
9.38045	 18.783569	
9.41371	 18.829346	
9.44698	 18.814087	
9.48024	 18.768311	
9.5135	 18.844604	
9.54677	 18.859863	
9.58003	 18.783569	
9.6133	 18.844604	
9.64656	 18.875122	
9.67982	 18.814087	
9.71309	 18.829346	
9.74635	 18.875122	
9.77962	 18.798828	
9.81288	 18.859863	
9.84614	 18.859863	
9.87941	 18.814087	
9.91267	 18.859863	
9.94594	 18.859863	
9.9792	 18.783569	
10.0125	 18.859863	
10.0457	 18.829346	
10.079	 18.783569	
10.1123	 18.859863	
10.1455	 18.814087	
10.1788	 18.783569	
10.212	 18.875122	
10.2453	 18.768311	
10.2786	 18.783569	
10.3118	 18.829346	
10.3451	 18.768311	
10.3784	 18.783569	
10.4116	 18.798828	
10.4449	 18.753052	
10.4782	 18.737793	
10.5114	 18.798828	
10.5447	 18.722534	
10.578	 18.707275	
10.6112	 18.829346	
10.6445	 18.707275	
10.6777	 18.707275	
10.711	 18.737793	
10.7443	 18.692017	
10.7775	 18.630981	
10.8108	 18.707275	
10.8441	 18.661499	
10.8773	 18.646240	
10.9106	 18.737793	
10.9439	 18.661499	
10.9771	 18.676758	
11.0104	 18.722534	
11.0436	 18.707275	
11.0769	 18.630981	
11.1102	 18.722534	
11.1434	 18.676758	
11.1767	 18.615723	
11.21	 18.722534	
11.2432	 18.646240	
11.2765	 18.585205	
11.3098	 18.692017	
11.343	 18.646240	
11.3763	 18.630981	
11.4096	 18.707275	
11.4428	 18.692017	
11.4761	 18.676758	
11.5093	 18.753052	
11.5426	 18.615723	
11.5759	 18.737793	
11.6091	 18.737793	
11.6424	 18.676758	
11.6757	 18.737793	
11.7089	 18.814087	
11.7422	 18.737793	
11.7755	 18.829346	
11.8087	 18.844604	
11.842	 18.783569	
11.8752	 18.859863	
11.9085	 18.844604	
11.9418	 18.798828	
11.975	 18.844604	
12.0083	 18.859863	
12.0416	 18.798828	
